<svg id="Group_65" data-name="Group 65" xmlns="http://www.w3.org/2000/svg" width="31" height="18" viewBox="0 0 31 18">
  <path id="Fill_1" data-name="Fill 1" d="M0,17a1,1,0,0,0,1,1H30a1,1,0,0,0,1-1V1a1,1,0,0,0-1-1H1A1,1,0,0,0,0,1Z" fill="#3d9635"/>
  <g id="Group_64" data-name="Group 64" transform="translate(8 3)">
    <path id="Fill_2" data-name="Fill 2" d="M.019.656c-.031.419-.07,1.16.293,1.236.441.039.2-.731.356-.871C.7.953.755.953.76,1.039v.655a.312.312,0,0,0,.251.315c.115-.007.192,0,.237.107q.028.564.053,1.128s.269.079.282-.633a6.482,6.482,0,0,1-.028-.849c0-.079.105-.086.179-.043.115.079.167.176.345.137.273-.075.435-.2.44-.409A1.75,1.75,0,0,0,2.4.864C2.409.827,2.343.738,2.356.7c.049.075.122.068.139,0A.581.581,0,0,0,2.262.348c-.1-.082-.24-.064-.292.111a.951.951,0,0,0,.224.627.607.607,0,0,1,.055.314.178.178,0,0,1-.222-.042s-.219-.161-.219-.193A.75.75,0,0,0,1.79.66.65.65,0,0,0,1.646.387c-.053-.06-.127-.06-.162,0a.929.929,0,0,0,.018.666c.049.143.127.232.091.232-.03.083-.092.061-.137-.032A2.28,2.28,0,0,1,1.38.641c-.02-.16-.042-.5-.15-.594-.066-.086-.165-.043-.2.039a2.94,2.94,0,0,0,.011.466,4.974,4.974,0,0,1,.134.752c.009.355-.208.154-.2-.025A1.577,1.577,0,0,0,.97.6C.934.509.892.487.8.506.734.5.557.688.507,1a2.725,2.725,0,0,0-.06.308c-.025.161-.135.276-.211-.026C.169,1.067.13.53.019.656" transform="translate(0.449 1.149)" fill="#fff"/>
    <path id="Fill_4" data-name="Fill 4" d="M1.149.277C.76.467.383.639,0,.818A1.168,1.168,0,0,1,.909.1c.236.007.176.089.24.179" transform="translate(0.516 3.246)" fill="#fff"/>
    <path id="Fill_6" data-name="Fill 6" d="M.806,4.571a.718.718,0,0,1-.8-.7c0-.031,0-.057,0-.081a1.421,1.421,0,0,1,.019-.284c.017-.181.082-.289.136-.289a.045.045,0,0,1,.026.009A.275.275,0,0,1,.243,3.4a1.3,1.3,0,0,0,.091.512.635.635,0,0,0,.572.251A1.293,1.293,0,0,0,2.154,2.766c0-.033-.013-.052-.031-.061l-.009,0c-.029,0-.068.04-.081.084A1.19,1.19,0,0,1,.96,3.958.662.662,0,0,1,.4,3.678a1.024,1.024,0,0,1-.008-.955A.1.1,0,0,1,.444,2.7c.08,0,.09.174.1.343a.925.925,0,0,0,.044.293.319.319,0,0,0,.3.186,1.031,1.031,0,0,0,.4-.106.909.909,0,0,0,.5-.51A.23.23,0,0,0,1.8,2.769a.025.025,0,0,0-.014,0,.221.221,0,0,0-.093.051.647.647,0,0,1-.131.078.638.638,0,0,1-.153.022.322.322,0,0,1-.258-.123.905.905,0,0,1,0-.428.485.485,0,0,1,.41-.376h.019a.345.345,0,0,1,.288.164.587.587,0,0,0,.121.119H2a.121.121,0,0,0,.094-.05.147.147,0,0,0,.03-.122c-.056-.334-.1-.633-.148-.921S1.882.608,1.828.284A.21.21,0,0,1,1.982.023L2.01.013A.138.138,0,0,1,2.055,0l.009,0h.017l.005,0,0,0H2.1a.007.007,0,0,0,.006,0l.009.009,0,.005a1.942,1.942,0,0,1,.319.727A.11.11,0,0,1,2.345.8.277.277,0,0,1,2.287.791.3.3,0,0,0,2.224.782c.028.212.057.422.085.625s.059.425.088.642a.348.348,0,0,1,.157-.055.081.081,0,0,1,.063.025.236.236,0,0,1,.03.177c.007.041.042.065.1.065a.235.235,0,0,0,.141-.051c.055-.153.134-.241.215-.241.065,0,.119.059.141.155a.059.059,0,0,0,.063.053.069.069,0,0,0,.035-.009c.01-.005.017-.009.02-.015l0,0a.027.027,0,0,0,0-.009c.005-.031.01-.063.015-.094l.01-.067A.053.053,0,0,1,3.4,1.949a.551.551,0,0,1,.211-.086,4.575,4.575,0,0,1-.066.57.288.288,0,0,1-.286.185.318.318,0,0,1-.185-.056.086.086,0,0,0-.059-.024.1.1,0,0,0-.077.038.48.48,0,0,1-.311.138.293.293,0,0,1-.216-.095l0,0H2.4c-.018.017-.011.074,0,.161a1.8,1.8,0,0,1-.048.784,1.709,1.709,0,0,1-1.547,1Z" transform="translate(1.074 1.152)" fill="#fff"/>
    <path id="Fill_8" data-name="Fill 8" d="M.226,1.228a.816.816,0,0,1-.22-.017H0L0,1.2A1.876,1.876,0,0,1,.312.941,5.154,5.154,0,0,0,.81.527.039.039,0,0,0,.827.489C.821.447.762.4.708.377A.255.255,0,0,1,.755.037.382.382,0,0,1,.891,0H.916a.35.35,0,0,1,.148.033.277.277,0,0,1,.067.213A.179.179,0,0,1,1.04.377a.055.055,0,0,0-.023.041.05.05,0,0,0,.023.037c.014.012.028.022.042.032a.568.568,0,0,1,.046.036.2.2,0,0,1-.021.024,4,4,0,0,1-.677.663A.771.771,0,0,1,.226,1.228Z" transform="translate(3.599 1.116)" fill="#fff"/>
    <path id="Fill_10" data-name="Fill 10" d="M.413.056A1.1,1.1,0,0,0,.3,1.044a.247.247,0,0,0,.245.079A.433.433,0,0,0,.7.7C.659.629.624.618.578.679.483.866.443.736.434.629A2.388,2.388,0,0,1,.46.1C.484-.047.46,0,.413.056" transform="translate(0.144 4.549)" fill="#fff"/>
    <path id="Fill_12" data-name="Fill 12" d="M2.148,3.047c-.207-.44-.5-.874-.588-1.039S.775.859.673.745C.447.484,1.038.856.6.333.431.194.42.187.279.072.211.022.037-.065.009.079A.808.808,0,0,0,.023.391,1.1,1.1,0,0,0,.2.656,19.388,19.388,0,0,1,2.13,3.685c.1-.043.076-.562.019-.637" transform="translate(7.624 1.02)" fill="#fff"/>
    <path id="Fill_14" data-name="Fill 14" d="M.007,4.418c-.042.043.1.24.286.236A1.074,1.074,0,0,0,1.125,4a1.141,1.141,0,0,0,.191-.5A10.792,10.792,0,0,0,1.108.966.388.388,0,0,1,1.116.791c.02-.025.087,0,.123-.058C1.293.68,1.1.243.99.075.951,0,.937-.05.872.083A.944.944,0,0,0,.764.562c.147,1,.192,1.873.29,2.868a.392.392,0,0,1-.072.293,2.837,2.837,0,0,1-.974.695" transform="translate(8.851 1.117)" fill="#fff"/>
    <path id="Fill_16" data-name="Fill 16" d="M.173,4.454c-.223.126-.223.272-.042.276A1.119,1.119,0,0,0,1.058,4.3a1.4,1.4,0,0,0,.15-.558A12.856,12.856,0,0,0,1.04,1,1.154,1.154,0,0,1,1.009.74c.021-.047.121.007.155-.049C1.218.64.905.242.794.075.756,0,.742-.051.677.085A.749.749,0,0,0,.614.561a25.841,25.841,0,0,1,.31,3.094.89.89,0,0,1-.063.254,1.843,1.843,0,0,1-.3.347c-.1.071-.317.143-.386.2" transform="translate(12.86 1.075)" fill="#fff"/>
    <path id="Fill_18" data-name="Fill 18" d="M.823,3.494c0-.254.007-.473,0-.663s-.1-.9-.126-1.049S.632,1.4.59,1.217A1.465,1.465,0,0,1,.552.895C.569.844.64.9.672.838a1.962,1.962,0,0,0-.292-.8C.339-.033.262-.007.171.114.082.193.115.372.148.544A15.476,15.476,0,0,1,.5,3.942c-.012.09.326-.276.322-.447" transform="translate(12.376 1.064)" fill="#fff"/>
    <path id="Fill_20" data-name="Fill 20" d="M.636.9A1,1,0,0,1,.118.482.292.292,0,0,1,.135.256C.187.224.266.185.325.224c0,0,.062.083.051.093C.452.352.484.331.493.3.5.249.468.217.468.159A.163.163,0,0,1,.757.077.566.566,0,0,1,.835.356C.833.4.759.349.717.36S.663.417.66.46C.651.578.638.761.636.9" transform="translate(10.925 2.254)" fill="#fff"/>
    <path id="Fill_22" data-name="Fill 22" d="M.8,3.778A11.541,11.541,0,0,0,.78,2.525,15.476,15.476,0,0,0,.649.964C.6.67.77,1,.746.824A1.849,1.849,0,0,0,.334.068C.271-.018.274-.035.176.09A.878.878,0,0,0,.189.677a10.667,10.667,0,0,1,.26,1.7A14.909,14.909,0,0,1,.465,4.193c.105,0,.274-.168.332-.415" transform="translate(8.188 1.063)" fill="#fff"/>
    <path id="Fill_24" data-name="Fill 24" d="M2.336,3.218c-.245-.4-.617-.877-.716-1.039S.68.815.575.708C.268.4.716.657.518.41A2.49,2.49,0,0,0,.154.066C.083.024.038-.066.014.081A3.005,3.005,0,0,0,0,.475.49.49,0,0,0,.126.718,22.586,22.586,0,0,1,2.332,3.851c.094-.042.062-.562,0-.633" transform="translate(11.338 1.069)" fill="#fff"/>
    <path id="Fill_26" data-name="Fill 26" d="M9.81,1.3c-.079,0-.127-.059-.176-.13a2.914,2.914,0,0,1-.425.015c-.258,0-.533-.006-.606-.012l0,.007a.15.15,0,0,1-.121.084.147.147,0,0,1-.034,0c-.007,0-.009,0-.012,0l-.006,0A.447.447,0,0,1,8.34.778H7.86c-.832,0-2.159,0-3.455,0H4.369l-3.125,0A1.37,1.37,0,0,1,0,.287l.145,0C.5.3,1.444.337,1.787.337c.274,0,.917,0,1.73.011h.008C4.952.358,6.907.373,8.367.373a.222.222,0,0,1-.1-.215A.205.205,0,0,1,8.437,0h.007a.115.115,0,0,1,.015.038A.171.171,0,0,0,8.483.1c0,.006.006.01.008.01H8.5A.109.109,0,0,1,8.575.13.094.094,0,0,1,8.606.2a.3.3,0,0,1-.049.175L8.738.38C8.974.39,9.16.4,9.4.423c0,0,.25-.025.343-.036l.034,0c.344,0,.363.526.364.532-.005.324-.132.35-.292.383l-.013,0ZM8.6.808h0a.08.08,0,0,0-.039.057A.137.137,0,0,0,8.58.978l.1.007c.074.006.144.012.216.012.04,0,.078,0,.115-.005a.024.024,0,0,1,0-.011V.975a.017.017,0,0,0,0-.005l0-.006A.185.185,0,0,1,9.152.916c.05,0,.108.014.122.055a.03.03,0,0,0,0,.009.03.03,0,0,1,0,.009l.14,0,.141,0h.005s.008,0,.008,0A.1.1,0,0,0,9.609.92.1.1,0,0,0,9.581.828C9.413.82,9.248.819,9.088.819S8.763.817,8.6.809Z" transform="translate(2.257 9.052)" fill="#fff"/>
    <path id="Fill_28" data-name="Fill 28" d="M.071.5C-.152,1.122.2,1.809.443,1.744c.177.069.288-.261.361-.619.051-.1.087-.112.113-.061-.007.48.035.588.16.731a.407.407,0,0,0,.531.007c.018-.015.218-.212.218-.212a.131.131,0,0,1,.182-.006c.066.057.057.16.2.229a.438.438,0,0,0,.436-.09c.081-.133.1-.179.135-.229.058-.075.155-.043.155-.018-.008.043-.064.083-.028.158.07.05.085.018.127.007.143-.068.249-.368.249-.368,0-.115-.059-.1-.1-.079s-.056.043-.112.075c-.068.007-.2.053-.269-.047A4.092,4.092,0,0,1,2.674.807c0-.007-.089-.19-.006-.2C2.71.61,2.8.634,2.816.559c.045-.072-.1-.279-.19-.38A.211.211,0,0,0,2.316.17c-.077.068-.067.15-.082.222a.338.338,0,0,0,.074.3.9.9,0,0,1,.172.612.26.26,0,0,1-.227.115C2.194,1.4,2.1,1.38,2.043,1.007,2.005.72,2.054.32,1.929.137,1.885.022,1.853-.089,1.744.108a.435.435,0,0,0-.064.426A1.239,1.239,0,0,1,1.75,1.2a1.157,1.157,0,0,1-.13.182.223.223,0,0,1-.276.036A.291.291,0,0,1,1.18,1.19,3.2,3.2,0,0,0,1.152.456.135.135,0,0,0,.927.409a1.636,1.636,0,0,0-.412.828c-.065.2-.133.143-.18.061C.219,1.193.211.363.071.5" transform="translate(4.809 0.962)" fill="#fff"/>
    <path id="Fill_30" data-name="Fill 30" d="M1.777,2.968h0a.62.62,0,0,1-.485-.222.4.4,0,0,1-.082-.159.147.147,0,0,0-.023-.053s0,0-.005,0a6.128,6.128,0,0,1-1.13.382C.025,2.913.008,2.907,0,2.9s0-.024.011-.043a3.48,3.48,0,0,1,.765-.539c.153-.089.31-.182.46-.282.005-.016.011-.039.018-.067A.851.851,0,0,1,1.5,1.486a.385.385,0,0,1-.007.1,1.445,1.445,0,0,0-.017.178.47.47,0,0,1,0,.071s0,.008,0,.011l.008,0,0-.007a2.977,2.977,0,0,0,.6-.551.434.434,0,0,0,.018-.257V1.028a.676.676,0,0,0-.2-.273.353.353,0,0,1-.1-.121C1.774.476,1.784.279,1.886.221A.2.2,0,0,1,2.015.17a.239.239,0,0,1,.157.069A.859.859,0,0,1,2.4.654a.029.029,0,0,1-.03.018A.23.23,0,0,1,2.306.656.237.237,0,0,0,2.24.641a.04.04,0,0,0-.019,0,.616.616,0,0,1,.136.273.823.823,0,0,1-.023.586,1.673,1.673,0,0,1-.688.735l-.117.078a.19.19,0,0,0,.089.186.194.194,0,0,0,.136.036.674.674,0,0,0,.2-.032,1.913,1.913,0,0,0,.8-.817A1.748,1.748,0,0,0,2.668.913c-.1-.228-.223-.558-.226-.576A.314.314,0,0,1,2.514.068.44.44,0,0,0,2.559.028.123.123,0,0,1,2.586.006C2.592,0,2.593,0,2.594,0H2.6c.021,0,.048.026.119.1a2.479,2.479,0,0,1,.331,1.1.115.115,0,0,0,.064.13l.005,0h.005l0,0h.006C3.156,1.1,3.694.814,4.164.77c.052-.01.049-.084.046-.149a.435.435,0,0,1,0-.073A.491.491,0,0,1,4.319.185.427.427,0,0,1,4.613.029a.457.457,0,0,1,.461.5c-.037.546-.646.622-.905.655a.077.077,0,0,0-.041.024l0,.008v.008l0,0,.011.008a.1.1,0,0,0,.027.013l1.31.007.067.04a.018.018,0,0,1,0,.007l0,.006-.007.006a.208.208,0,0,0-.061.067,1,1,0,0,0-.131.4,6.458,6.458,0,0,1-1.206.226c-.147.073-.212.168-.184.268s.239.185.326.225l.039.019a.129.129,0,0,1,.068.087.271.271,0,0,1-.086.21,1.448,1.448,0,0,1-1.306-.671.072.072,0,0,0-.044-.016.131.131,0,0,0-.1.066,2.03,2.03,0,0,1-.922.752A.656.656,0,0,1,1.777,2.968ZM3.29,1.55a.138.138,0,0,0-.137.139.7.7,0,0,0,.331.5l.032.024a.4.4,0,0,1,.041.019.187.187,0,0,0,.075.027h.005a.015.015,0,0,0,.009-.005l.006,0,0,0a.008.008,0,0,0,0-.007c.018-.023.019-.082,0-.172,0-.19.125-.232.257-.276l.019-.007c.053-.019.08-.049.076-.081-.006-.048-.075-.088-.16-.095L3.743,1.6l-.053,0A2.185,2.185,0,0,1,3.3,1.55Z" transform="translate(3.041 2.754)" fill="#fff"/>
    <path id="Fill_32" data-name="Fill 32" d="M.309.62c.152.068.435.039.423-.2C.732.4.727.33.726.312.7.24.61.255.592.33.586.351.6.39.58.405S.519.409.52.344A.1.1,0,0,0,.495.287.041.041,0,0,0,.461.276C.442.279.442.283.432.3A.141.141,0,0,0,.42.355C.416.379.407.387.389.39S.375.394.358.383.336.369.336.351A.328.328,0,0,0,.329.294.07.07,0,0,0,.291.272C.208.272.2.366.208.4a.215.215,0,0,0,.1.218" transform="translate(1.81 0.849)" fill="#fff"/>
    <path id="Fill_34" data-name="Fill 34" d="M.3.622C.454.69.813.65.726.421A1.041,1.041,0,0,0,.717.31C.687.239.6.257.584.329.579.353.6.393.574.407S.513.407.514.342A.085.085,0,0,0,.488.289.042.042,0,0,0,.455.278C.435.282.435.285.423.3A.2.2,0,0,0,.411.357C.409.382.4.389.381.393S.368.4.351.385.329.372.329.353A.145.145,0,0,0,.32.3.062.062,0,0,0,.283.274C.2.274.2.368.2.4A.228.228,0,0,0,.3.622" transform="translate(6.243 2.68)" fill="#fff"/>
    <path id="Fill_36" data-name="Fill 36" d="M.31.62C.46.688.744.656.732.42.732.4.727.331.726.309A.069.069,0,0,0,.592.331C.585.352.6.391.578.4S.518.409.52.341A.12.12,0,0,0,.495.284a.073.073,0,0,0-.033,0C.442.28.442.284.43.3A.186.186,0,0,0,.418.359c0,.021-.01.028-.03.032S.372.395.359.384.337.37.337.352A.293.293,0,0,0,.327.291.1.1,0,0,0,.291.277C.208.277.2.37.207.4.2.409.2.574.31.62" transform="translate(8.818 1.922)" fill="#fff"/>
    <path id="Fill_38" data-name="Fill 38" d="M.165,3.38a.884.884,0,0,0-.088.874A.7.7,0,0,0,.4,4.615a.228.228,0,0,0,.34-.036C.9,4.422.9,4.024.971,3.945a.137.137,0,0,1,.241-.057.646.646,0,0,0,.221.186.377.377,0,0,0,.486.032A.533.533,0,0,0,2.178,3.8,10.93,10.93,0,0,0,2.2,1.986c-.007-.042-.149-.744-.149-.752S2.028.877,2.014.795C2.01.759,2,.748,2.038.752,2.076.787,2.08.791,2.1.8S2.178.741,2.155.68C2.036.465,1.914.247,1.794.036c-.027-.033-.066-.061-.112,0a.255.255,0,0,0-.088.193c.011.154.038.312.049.466.049.261.1.526.144.791.045.563.058,1.078.1,1.641-.008.236-.082.555-.156.583,0,0-.105.065-.179,0a2.115,2.115,0,0,1-.264-.344.162.162,0,0,0-.257,0A3.448,3.448,0,0,0,.583,4.2c-.038.057-.142.107-.258,0a1.152,1.152,0,0,1-.16-.813" transform="translate(10.299 1.064)" fill="#fff"/>
    <path id="Fill_40" data-name="Fill 40" d="M.451.076a.476.476,0,0,1,.2.451C.623.689.552.867.5.843S.538.681.485.535C.453.438.27.266.289.212.251.1.368.055.451.076" transform="translate(8.744 1.084)" fill="#fff"/>
    <path id="Fill_42" data-name="Fill 42" d="M.816,3.513A3.958,3.958,0,0,0,.788,2.8C.78,2.617.571,1.082.527.938.476.669.731.9.7.744.614.548.395.258.327.086.283.011.3-.054.208.068A1.487,1.487,0,0,0,.125.742,14.377,14.377,0,0,1,.539,3.978c.1,0,.225-.233.277-.466" transform="translate(10.083 1.092)" fill="#fff"/>
    <path id="Fill_44" data-name="Fill 44" d="M.452.042c.127.064.2.4.184.494C.612.711.547.9.5.876S.51.615.485.543C.456.44.289.25.307.192A.117.117,0,0,1,.452.042" transform="translate(12.756 1.498)" fill="#fff"/>
    <path id="Fill_46" data-name="Fill 46" d="M.455.154C.571.2.641.444.628.516.6.644.542.781.5.766S.508.573.483.519C.474.387.31.319.314.261.282.158.381.139.455.154" transform="translate(3.591 3.842)" fill="#fff"/>
    <path id="Fill_48" data-name="Fill 48" d="M.453.143c.174.05.184.3.173.376C.6.652.54.795.494.776S.493.58.47.522C.445.44.3.3.315.257.281.168.381.125.453.143" transform="translate(0.44 0.935)" fill="#fff"/>
    <path id="Fill_50" data-name="Fill 50" d="M.378.232a.3.3,0,0,0-.1.4A.205.205,0,0,0,.492.7C.624.718.7.461.7.461s0-.072-.15.064C.485.54.477.515.46.479a.317.317,0,0,1,.02-.2C.5.213.453.185.378.232" transform="translate(3.951 2.028)" fill="#fff"/>
    <path id="Fill_52" data-name="Fill 52" d="M.525.208a.47.47,0,0,0-.2.336C.316.631.3.631.358.688S.446.742.531.7A.173.173,0,0,0,.613.58C.634.481.506.627.489.516S.543.373.622.269c0-.068,0-.115-.1-.06" transform="translate(4.805 0.773)" fill="#fff"/>
    <path id="Fill_54" data-name="Fill 54" d="M.4.281A2.059,2.059,0,0,0,.344.671C.319.767.449.811.5.685A1.122,1.122,0,0,0,.6.26C.572.112.468.119.4.281" transform="translate(5.737 0.84)" fill="#fff"/>
    <path id="Fill_56" data-name="Fill 56" d="M.1.584c.019-.015.717-.5.717-.5C.893.058.877.334.845.33A2.748,2.748,0,0,1,.1.834C.071.856.036.644.1.584" transform="translate(11.121 3.068)" fill="#fff"/>
    <path id="Fill_58" data-name="Fill 58" d="M.462.048C.587.108.636.459.622.556.626.742.5.893.455.871S.46.639.437.563C.407.459.3.266.321.209A.12.12,0,0,1,.462.048" transform="translate(11.401 3.601)" fill="#fff"/>
    <path id="Fill_60" data-name="Fill 60" d="M.082.371A1.036,1.036,0,0,1,.281.2.121.121,0,0,1,.416.228C.428.292.373.356.39.446.4.482.416.525.484.506A.48.48,0,0,1,.808.414C.9.414.9.557.844.557A2.456,2.456,0,0,0,.4.711.1.1,0,0,1,.272.693.124.124,0,0,1,.259.568C.266.5.236.457.174.461.127.489.087.5.063.453.056.414.052.392.082.371" transform="translate(7.621 4.796)" fill="#fff"/>
    <path id="Fill_62" data-name="Fill 62" d="M.363.374a.087.087,0,0,1,0,.133C.31.552.277.574.227.621.205.66.19.717.26.736.39.771.693.582.693.574A.087.087,0,0,0,.722.47C.693.438.63.456.587.456.565.456.5.441.53.388a.506.506,0,0,0,.054-.1C.6.238.588.209.513.184a.635.635,0,0,0-.187,0C.281.195.265.216.258.266c0,.079.053.075.1.107" transform="translate(12.237 4.983)" fill="#fff"/>
  </g>
</svg>
