<svg xmlns="http://www.w3.org/2000/svg" width="32" height="32" viewBox="0 0 32 32">
    <g fill="none">
        <g transform="translate(0 .625) translate(7.375 .625)">
            <path fill="#D5F5FB" d="M9.853 3.016H14.129V5.4830000000000005H9.853z"/>
            <path fill="#F7CC49" d="M9.74 3.016h4.5c.829 0 1.5-.671 1.5-1.5 0-.828-.671-1.5-1.5-1.5h-4.5c-.828 0-1.5.672-1.5 1.5 0 .829.672 1.5 1.5 1.5z"/>
            <circle cx="12" cy="17.484" r="12" fill="#F09440"/>
            <circle cx="12" cy="17.484" r="9.071" fill="#FFF"/>
            <circle cx="12" cy="17.484" r="1.317" fill="#F7CC49"/>
        </g>
        <g fill="#000">
            <path d="M31.938 16.853c-.287-2.89-1.579-5.614-3.636-7.672-1.758-1.758-3.91-2.887-6.174-3.39V4.203c.925-.23 1.613-1.067 1.613-2.062 0-1.171-.954-2.125-2.125-2.125h-4.5c-1.172 0-2.125.954-2.125 2.125 0 .995.687 1.832 1.612 2.062v1.593C14.345 6.3 12.2 7.428 10.448 9.18c-.384.384-.738.787-1.061 1.205l-.048-.003H4.885c-.345 0-.625.28-.625.625 0 .346.28.625.625.625h3.651c-.458.768-.828 1.573-1.109 2.403H.625c-.345 0-.625.28-.625.625s.28.625.625.625h6.449c-.18.79-.283 1.595-.31 2.402H4c-.345 0-.625.28-.625.625s.28.625.625.625h2.784c.053.809.183 1.614.39 2.402H3.125c-.345 0-.625.28-.625.625s.28.625.625.625h4.448c.613 1.622 1.571 3.142 2.875 4.446 2.059 2.06 4.786 3.35 7.68 3.636.412.041.825.061 1.238.061 2.439 0 4.847-.706 6.89-2.036.289-.188.37-.576.182-.865-.188-.29-.575-.37-.864-.183-4.473 2.913-10.462 2.283-14.242-1.497-4.435-4.435-4.435-11.651 0-16.087 4.435-4.435 11.651-4.435 16.086 0 3.775 3.775 4.408 9.76 1.506 14.23-.188.29-.106.677.184.865.29.188.676.105.864-.184 1.55-2.389 2.25-5.273 1.966-8.123zM16.24 2.14c0-.482.392-.875.875-.875h4.5c.482 0 .875.393.875.875 0 .483-.393.875-.875.875H17.116c-.483 0-.875-.392-.875-.875zm1.612 3.44V4.266h3.025V5.58c-1.004-.12-2.02-.119-3.025.002z" transform="translate(0 .625)"/>
            <path d="M27.86 25.969c-.164 0-.325.067-.441.183-.117.116-.183.277-.183.442 0 .164.066.325.183.442.116.117.277.183.442.183.164 0 .325-.066.442-.183.116-.117.183-.278.183-.442 0-.165-.067-.326-.183-.442-.117-.116-.278-.183-.442-.183zM19.375 8.413c-5.346 0-9.695 4.35-9.695 9.696s4.349 9.695 9.695 9.695 9.696-4.35 9.696-9.695c0-5.347-4.35-9.696-9.696-9.696zm0 18.141c-4.657 0-8.445-3.788-8.445-8.445s3.788-8.446 8.445-8.446 8.446 3.789 8.446 8.446-3.789 8.445-8.446 8.445z" transform="translate(0 .625)"/>
            <path d="M23.329 13.271l-3.096 3.096c-.259-.128-.55-.2-.858-.2-.308 0-.599.072-.858.2l-1.385-1.386c-.244-.244-.64-.244-.884 0s-.244.64 0 .884l1.385 1.386c-.128.259-.2.55-.2.858 0 1.07.871 1.942 1.942 1.942s1.942-.872 1.942-1.942c0-.308-.072-.6-.2-.858l3.005-3.005.09-.09c.245-.245.245-.64 0-.885-.244-.244-.64-.244-.883 0zm-3.954 5.53c-.382 0-.692-.31-.692-.692 0-.382.31-.692.692-.692.382 0 .692.31.692.692 0 .381-.31.692-.692.692zM26.058 17.491h-.58c-.345 0-.625.28-.625.625s.28.625.625.625h.58c.345 0 .625-.28.625-.625s-.28-.625-.625-.625zM13.272 17.476h-.58c-.344 0-.624.28-.624.625s.28.625.625.625h.579c.345 0 .625-.28.625-.625s-.28-.625-.625-.625zM19.383 12.63c.345 0 .625-.28.625-.625v-.579c0-.345-.28-.625-.625-.625s-.625.28-.625.625v.58c0 .344.28.624.625.624zM19.367 23.587c-.345 0-.625.28-.625.625v.58c0 .344.28.624.625.624.346 0 .625-.28.625-.625v-.579c0-.345-.28-.625-.625-.625zM.625 21.34c-.164 0-.326.067-.442.183-.116.116-.183.278-.183.442 0 .165.067.326.183.442.116.116.278.183.442.183.164 0 .326-.067.442-.183.116-.116.183-.278.183-.442 0-.164-.067-.326-.183-.442-.116-.116-.278-.183-.442-.183z" transform="translate(0 .625)"/>
        </g>
    </g>
</svg>
