<svg xmlns="http://www.w3.org/2000/svg" xmlns:xlink="http://www.w3.org/1999/xlink" width="16" height="16" viewBox="0 0 16 16">
    <defs>
        <path id="a" d="M17.243 11.423h-.022c-.172.002-.342 0-.514 0h-5.284v5.82c0 .424-.346.737-.756.756-.409.02-.756-.36-.756-.756v-.022c-.002-.172 0-.342 0-.514v-5.284H4.09c-.423 0-.737-.346-.756-.756-.019-.409.361-.756.756-.756h.023c.172-.002.342 0 .514 0H9.91V4.09c0-.423.346-.737.756-.756.408-.019.756.361.756.756v.023c.002.172 0 .342 0 .514V9.91h5.82c.424 0 .737.346.756.756.02.408-.36.756-.756.756z"/>
    </defs>
    <g fill="none" fill-rule="evenodd" transform="translate(-2.667 -2.667)">
        <mask id="b" fill="#fff">
            <use xlink:href="#a"/>
        </mask>
        <!-- <use fill="#000" transform="rotate(45 10.667 10.667)" xlink:href="#a"/> -->
        <path fill="#fff" d="M2.667 2.667h16v16h-16z" mask="url(#b)"/>
    </g>
</svg>
