<svg xmlns="http://www.w3.org/2000/svg" width="18" height="18" viewBox="0 0 18 18">
    <g fill="none" fill-rule="nonzero">
        <circle cx="9" cy="9" r="8.609" fill="#F6C83C"/>
        <circle cx="9" cy="9" r="6.261" fill="#FAE194"/>
        <path fill="#1A1A1A" d="M10.565 7.533a.391.391 0 0 0 .783 0c0-.519-.26-.998-.73-1.351A2.611 2.611 0 0 0 9.391 5.7v-.613a.391.391 0 0 0-.782 0V5.7c-.46.06-.886.226-1.227.482-.47.353-.73.833-.73 1.35 0 .519.26.998.73 1.351.341.256.767.422 1.227.482v2.143c-.667-.123-1.174-.55-1.174-1.04a.391.391 0 0 0-.783 0c0 .518.26.997.73 1.35.341.256.767.422 1.227.482v.613a.391.391 0 0 0 .782 0V12.3c.46-.06.886-.226 1.227-.482.47-.353.73-.832.73-1.35 0-.519-.26-.998-.73-1.351a2.611 2.611 0 0 0-1.227-.482V6.492c.667.123 1.174.55 1.174 1.04zm-3.13 0c0-.491.507-.918 1.174-1.04v2.08c-.667-.123-1.174-.55-1.174-1.04zm3.13 2.934c0 .491-.507.918-1.174 1.04v-2.08c.667.123 1.174.55 1.174 1.04z"/>
        <path fill="#1A1A1A" d="M15.364 2.636A8.941 8.941 0 0 0 9 0a8.941 8.941 0 0 0-6.364 2.636A8.941 8.941 0 0 0 0 9c0 2.404.936 4.664 2.636 6.364A8.941 8.941 0 0 0 9 18a8.941 8.941 0 0 0 6.364-2.636A8.941 8.941 0 0 0 18 9a8.941 8.941 0 0 0-2.636-6.364zM9 17.217C4.469 17.217.783 13.531.783 9 .783 4.469 4.469.783 9 .783c4.531 0 8.217 3.686 8.217 8.217 0 4.531-3.686 8.217-8.217 8.217z"/>
        <path fill="#1A1A1A" d="M14.193 4.842a.391.391 0 0 0-.61.49A5.805 5.805 0 0 1 14.87 9 5.876 5.876 0 0 1 9 14.87 5.876 5.876 0 0 1 3.13 9a5.87 5.87 0 0 1 8.768-5.106.391.391 0 1 0 .387-.68A6.654 6.654 0 0 0 9 2.348 6.66 6.66 0 0 0 2.348 9 6.66 6.66 0 0 0 9 15.652 6.66 6.66 0 0 0 15.652 9a6.67 6.67 0 0 0-1.46-4.158z"/>
        <path fill="#1A1A1A" d="M12.692 4.382a.387.387 0 0 0 .361.242.392.392 0 0 0 .077-.775.388.388 0 0 0-.402.167.399.399 0 0 0-.058.293c.005.025.012.05.022.073z"/>
    </g>
</svg>
