<svg xmlns="http://www.w3.org/2000/svg" width="24" height="24" viewBox="0 0 24 24">
    <g fill="none" fill-rule="evenodd">
        <path fill="#41126C" fill-rule="nonzero" d="M22.594 1.407A4.77 4.77 0 0 0 19.198 0a4.77 4.77 0 0 0-3.395 1.406l-13.42 13.42a.938.938 0 0 0-.24.412L.033 22.811a.937.937 0 0 0 1.16 1.153l7.573-2.15a.938.938 0 0 0 .407-1.565L4.4 15.461 15.524 4.336l4.137 4.138-8.516 8.492a.937.937 0 0 0 1.324 1.328L22.593 8.197A4.77 4.77 0 0 0 24 4.802a4.77 4.77 0 0 0-1.406-3.395zM6.722 20.445l-4.433 1.26 1.241-4.461 3.192 3.2zM21.269 6.87l-.28.279-4.139-4.14.278-.278a2.908 2.908 0 0 1 2.07-.857c.782 0 1.517.304 2.07.857.553.553.857 1.288.857 2.07 0 .782-.304 1.517-.856 2.069z"/>
    </g>
</svg>
