<svg xmlns="http://www.w3.org/2000/svg" width="16" height="16" viewBox="0 0 16 16">
    <g fill="none" fill-rule="evenodd">
        <path fill="#41126C" fill-rule="nonzero" d="M15.375 9.11c.345 0 .625-.28.625-.626V4.391c0-1.379-1.121-2.5-2.5-2.5h-11A2.503 2.503 0 0 0 0 4.39v7.218c0 1.379 1.121 2.5 2.5 2.5h11c1.379 0 2.5-1.121 2.5-2.5a.625.625 0 1 0-1.25 0c0 .69-.56 1.25-1.25 1.25h-11c-.69 0-1.25-.56-1.25-1.25V4.523L6.68 7.9c.407.254.864.38 1.32.38.457 0 .913-.126 1.32-.38l5.43-3.376v3.961c0 .346.28.625.625.625zM8.66 6.837a1.242 1.242 0 0 1-1.32 0L1.772 3.375c.205-.147.456-.234.728-.234h11c.272 0 .523.087.728.234L8.66 6.838z"/>
    </g>
</svg>
