<svg id="Group_15" data-name="Group 15" xmlns="http://www.w3.org/2000/svg" width="31" height="18" viewBox="0 0 31 18">
  <path id="Fill_1" data-name="Fill 1" d="M0,18H31V0H0Z" fill="#fff"/>
  <path id="Fill_2" data-name="Fill 2" d="M11.693,0,0,6H2.145L12.4.737V0Z" transform="translate(18.6)" fill="#bd0034"/>
  <path id="Fill_3" data-name="Fill 3" d="M0,0,10.333,6V4.8L2.064,0Z" transform="translate(19.633 12)" fill="#bd0034"/>
  <path id="Fill_4" data-name="Fill 4" d="M0,1.132,9.213,6h2.154L0,0Z" fill="#bd0034"/>
  <path id="Fill_5" data-name="Fill 5" d="M10.351,0,0,5.9V6H1.871L12.4,0Z" transform="translate(0 12)" fill="#bd0034"/>
  <path id="Fill_6" data-name="Fill 6" d="M0,0V6L10.333,0Z" transform="translate(17.567)" fill="#1a237b"/>
  <path id="Fill_7" data-name="Fill 7" d="M0,0,10.333,6V0Z" transform="translate(2.067)" fill="#1a237b"/>
  <path id="Fill_8" data-name="Fill 8" d="M0,4H7.233V0Z" transform="translate(23.767 2)" fill="#1a237b"/>
  <path id="Fill_9" data-name="Fill 9" d="M0,0,7.233,4V0Z" transform="translate(23.767 12)" fill="#1a237b"/>
  <path id="Fill_10" data-name="Fill 10" d="M0,6H10.333V0Z" transform="translate(3.1 12)" fill="#1a237b"/>
  <path id="Fill_11" data-name="Fill 11" d="M0,6H10.333L0,0Z" transform="translate(17.567 12)" fill="#1a237b"/>
  <path id="Fill_12" data-name="Fill 12" d="M0,0V4L7.233,0Z" transform="translate(0 12)" fill="#1a237b"/>
  <path id="Fill_13" data-name="Fill 13" d="M0,4H7.233L0,0Z" transform="translate(0 2)" fill="#1a237b"/>
  <path id="Fill_14" data-name="Fill 14" d="M14.191,0V7.577H0v3.209H14.191V18h2.875V10.786H31V7.577H17.066V0Z" fill="#bd0034"/>
</svg>
