<svg xmlns="http://www.w3.org/2000/svg" width="16" height="16" viewBox="0 0 16 16">
    <g fill="none" fill-rule="evenodd">
        <g fill="#DB3030" fill-rule="nonzero">
            <path d="M15.818 10.393c-.128-.32-.492-.477-.812-.349-.32.128-.477.492-.349.812.163.408.11.873-.143 1.245-.252.373-.656.586-1.107.586H2.596c-.493 0-.93-.257-1.17-.688-.242-.432-.23-.94.03-1.36L6.86 1.887c.246-.399.672-.636 1.14-.636.468 0 .895.237 1.14.636L13.14 8.36c.18.293.566.384.86.203.293-.181.384-.567.203-.86L10.205 1.23C9.73.46 8.905 0 8.001 0c-.904 0-1.728.46-2.204 1.23L.392 9.982c-.501.811-.523 1.793-.058 2.626.464.832 1.31 1.329 2.262 1.329h10.81c.874 0 1.655-.414 2.143-1.135.485-.715.585-1.616.269-2.409z" transform="translate(0 .667) translate(0 .365)"/>
            <path d="M8.002 11.468c.345 0 .624-.28.624-.625s-.28-.625-.624-.625c-.346 0-.626.28-.626.625 0 .346.28.625.626.625zM8.626 8.656V4.063c0-.345-.28-.625-.625-.625s-.625.28-.625.625v4.593c0 .345.28.625.625.625s.625-.28.625-.625z" transform="translate(0 .667) translate(0 .365)"/>
        </g>
        <!-- <path fill="#DB3030" d="M0 -0.667H16V15.333H0z" transform="translate(0 .667)"/> -->
    </g>
</svg>
