<?xml version="1.0" encoding="UTF-8"?>
<svg width="24px" height="24px" viewBox="0 0 24 24" version="1.1" xmlns="http://www.w3.org/2000/svg" xmlns:xlink="http://www.w3.org/1999/xlink">
    <!-- Generator: Sketch 58 (84663) - https://sketch.com -->
    <title>eye_password-line</title>
    <desc>Created with Sketch.</desc>
    <g id="eye_password-line" stroke="none" stroke-width="1" fill="none" fill-rule="evenodd">
        <path d="M12,18.2714502 C10.0324781,18.2753826 8.11130047,17.6743976 6.49677926,16.5499069 C4.91920428,15.4571408 3.70206596,13.9200914 3,12.1340388 C4.45366618,8.43355451 8.0242322,6 12,6 C15.9757678,6 19.5463338,8.43355451 21,12.1340388 C20.2980043,13.919739 19.081131,15.4565183 17.5039277,16.5491999 C15.8892506,17.6739967 13.9678251,18.2752289 12,18.2714502 L12,18.2714502 Z M12,8.04409383 C9.74088736,8.04448427 7.90979473,9.87610441 7.91005502,12.1352171 C7.9103153,14.3943297 9.74182994,16.2255279 12.0009426,16.2253978 C14.2600553,16.2252676 16.091359,14.3938585 16.091359,12.1347458 C16.0894099,9.87595848 14.2587874,8.04533591 12,8.04338683 L12,8.04409383 Z M12,14.5894202 C11.0071129,14.5899917 10.1116606,13.9923688 9.73123682,13.0752523 C9.35081301,12.1581357 9.56034579,11.1021604 10.2621197,10.3997798 C10.9638935,9.69739915 12.0196874,9.4869539 12.9371324,9.86658502 C13.8545774,10.2462161 14.4529739,11.1411516 14.45326,12.1340388 C14.4520928,13.4887968 13.3547564,14.5870819 12,14.5894202 Z" id="Mask" fill="#2D2D2D" fill-rule="nonzero"></path>
        <rect id="Rectangle" fill="#2D2D2D" transform="translate(11.750000, 12.000000) rotate(35.000000) translate(-11.750000, -12.000000) " x="11" y="0" width="1.5" height="24" rx="0.75"></rect>
    </g>
</svg>