<svg xmlns="http://www.w3.org/2000/svg" width="16" height="16" viewBox="0 0 16 16">
    <g fill="none" fill-rule="evenodd">
        <path fill="#41126C" fill-rule="nonzero" d="M15.375.003H.625C.28.003 0 .283 0 .628 0 3.05.717 5.17 2.255 7.3c.96 1.33 2.681 2.308 3.558 2.746v3.795c0 .238.135.456.35.56l3.125 1.532c.087.043.18.064.274.064.116 0 .23-.032.331-.095.183-.114.294-.314.294-.53v-2.576c0-.345-.28-.625-.624-.625-.346 0-.625.28-.625.625v1.574l-1.875-.92V9.654c0-.244-.143-.466-.365-.568-1.166-.536-2.68-1.479-3.43-2.517-1.241-1.72-1.885-3.423-2-5.315h13.463c-.114 1.892-.758 3.596-2 5.315-.791 1.097-2.282 2.06-3.408 2.526-.319.132-.47.497-.338.816.132.32.498.47.817.338 1.194-.495 2.944-1.564 3.943-2.948C15.284 5.17 16 3.05 16 .628c0-.345-.28-.625-.625-.625z"/>
        <path fill="" d="M0 0H16V16H0z"/>
    </g>
</svg>
