<svg xmlns="http://www.w3.org/2000/svg" width="24" height="24" viewBox="0 0 24 24">
    <g fill="none" fill-rule="evenodd">
        <rect width="24" height="24" fill="#41126C" opacity=".35" rx="12"/>
        <path fill="#000" fill-rule="nonzero" d="M17.297 6.703A2.385 2.385 0 0 0 15.599 6c-.641 0-1.244.25-1.698.703l-6.71 6.71a.469.469 0 0 0-.12.206l-1.054 3.787a.469.469 0 0 0 .58.576l3.786-1.075a.469.469 0 0 0 .204-.782L8.2 13.73l5.562-5.562 2.069 2.069-4.258 4.246a.469.469 0 0 0 .662.664l5.062-5.048A2.385 2.385 0 0 0 18 8.4c0-.641-.25-1.244-.703-1.698zm-7.936 9.52l-2.217.629.621-2.23 1.596 1.6zm7.273-6.788l-.14.14-2.069-2.07.14-.139a1.454 1.454 0 0 1 1.034-.428c.391 0 .758.152 1.035.428.276.277.428.644.428 1.035 0 .39-.152.758-.428 1.034z"/>
        <path d="M6 5.5h12V18H6z"/>
    </g>
</svg>
