<svg xmlns="http://www.w3.org/2000/svg" width="12" height="12" viewBox="0 0 12 12">
    <g fill="none" fill-rule="evenodd">
        <g fill="#41126C" fill-rule="nonzero">
            <circle cx="6" cy="2.977" r="1"/>
            <path d="M10.243 1.757C9.109.624 7.603 0 6 0 4.397 0 2.89.624 1.757 1.757.624 2.891 0 4.397 0 6c0 1.603.624 3.11 1.757 4.243C2.891 11.376 4.397 12 6 12c1.097 0 2.17-.299 3.105-.865.221-.134.292-.422.158-.643-.135-.222-.423-.293-.644-.159-.787.477-1.693.73-2.619.73C3.209 11.063.938 8.79.938 6S3.208.938 6 .938c2.791 0 5.063 2.27 5.063 5.062 0 .998-.297 1.97-.859 2.81-.144.215-.086.506.13.65.214.144.506.086.65-.13C11.647 8.337 12 7.185 12 6c0-1.603-.624-3.11-1.757-4.243z"/>
            <path d="M6 4.383c-.259 0-.469.21-.469.469v4.171c0 .26.21.47.469.47s.469-.21.469-.47V4.852c0-.26-.21-.47-.469-.47z"/>
        </g>
        <!-- <path fill="#41126C" d="M0 0H12V12H0z"/> -->
    </g>
</svg>
