<?xml version="1.0" encoding="UTF-8"?>
<svg width="16px" height="16px" viewBox="0 0 16 16" version="1.1" xmlns="http://www.w3.org/2000/svg" xmlns:xlink="http://www.w3.org/1999/xlink">
    <!-- Generator: Sketch 53.1 (72631) - https://sketchapp.com -->
    <title>icon/close</title>
    <desc>Created with Sketch.</desc>
    <g id="minified-version" stroke="none" stroke-width="1" fill="none" fill-rule="evenodd">
        <g id="On-board-wizard--step-2.1-Copy-11" transform="translate(-1380.000000, -140.000000)" fill="#000000">
            <g id="icon/close" transform="translate(1378.000000, 138.000000)">
                <path d="M18.9682442,11.0308327 L18.9373192,11.0308327 C18.7028048,11.0334098 18.4708675,11.0308327 18.236353,11.0308327 L11.0308327,11.0308327 L11.0308327,18.9682442 C11.0308327,19.5455105 10.5592267,19.9733061 10,19.9990769 C9.44335036,20.0248477 8.96916733,19.5068543 8.96916733,18.9682442 L8.96916733,18.9373192 C8.96659025,18.7028048 8.96916733,18.4708675 8.96916733,18.236353 L8.96916733,11.0308327 L1.03175578,11.0308327 C0.454489482,11.0308327 0.0266939241,10.5592267 0.000923107352,10 C-0.0248477094,9.44335036 0.493145707,8.96916733 1.03175578,8.96916733 L1.06268076,8.96916733 C1.29719519,8.96659025 1.52913254,8.96916733 1.76364697,8.96916733 L8.96916733,8.96916733 L8.96916733,1.03175578 C8.96916733,0.454489482 9.44077328,0.0266939241 10,0.000923107352 C10.5566496,-0.0248477094 11.0308327,0.493145707 11.0308327,1.03175578 L11.0308327,1.06268076 C11.0334098,1.29719519 11.0308327,1.52913254 11.0308327,1.76364697 L11.0308327,8.96916733 L18.9682442,8.96916733 C19.5455105,8.96916733 19.9733061,9.44077328 19.9990769,10 C20.0248477,10.5566496 19.5068543,11.0308327 18.9682442,11.0308327 Z" id="Path" transform="translate(10.000000, 10.000000) rotate(-315.000000) translate(-10.000000, -10.000000) "></path>
            </g>
        </g>
    </g>
</svg>