<svg xmlns="http://www.w3.org/2000/svg" xmlns:xlink="http://www.w3.org/1999/xlink" width="24" height="24" viewBox="0 0 24 24">
    <defs>
        <path id="a" d="M12 22c5.523 0 10-4.477 10-10S17.523 2 12 2 2 6.477 2 12s4.477 10 10 10zm1.478-10l2.248 2.248a1 1 0 0 1 0 1.414l-.064.064a1 1 0 0 1-1.414 0L12 13.478l-2.248 2.248a1 1 0 0 1-1.414 0l-.064-.064a1 1 0 0 1 0-1.414L10.522 12 8.274 9.752a1 1 0 0 1 0-1.414l.064-.064a1 1 0 0 1 1.414 0L12 10.522l2.248-2.248a1 1 0 0 1 1.414 0l.064.064a1 1 0 0 1 0 1.414L13.478 12z"/>
    </defs>
    <g fill="none" fill-rule="evenodd">
        <mask id="b" fill="#fff">
            <use xlink:href="#a"/>
        </mask>
        <use fill="#051033" fill-opacity="0" xlink:href="#a"/>
        <g fill="#db3030" mask="url(#b)">
            <path d="M0 0h24v24H0z"/>
        </g>
    </g>
</svg>
