<svg xmlns="http://www.w3.org/2000/svg" xmlns:xlink="http://www.w3.org/1999/xlink" width="12" height="12" viewBox="0 0 12 12">
    <defs>
        <path id="prefix__a" d="M5 0c2.761 0 5 2.239 5 5s-2.239 5-5 5-5-2.239-5-5 2.239-5 5-5zm2.364 3.396c-.195-.195-.512-.195-.707 0L4.011 6.043l-.907-.907c-.196-.195-.512-.195-.708 0-.195.195-.195.512 0 .707l1.261 1.26c.195.196.512.196.707 0l3-3c.195-.195.195-.511 0-.707z"/>
    </defs>
    <g fill="none" fill-rule="evenodd" transform="translate(1 1)">
        <mask id="prefix__b" fill="#f09440">
            <use xlink:href="#prefix__a"/>
        </mask>
        <use fill="#051033" fill-opacity="0" xlink:href="#prefix__a"/>
        <g fill="#f09440" mask="url(#prefix__b)">
            <path d="M0 0L12 0 12 12 0 12z" transform="translate(-1 -1)"/>
        </g>
    </g>
</svg>
