<?xml version="1.0" encoding="utf-8"?>
<!-- Generator: Adobe Illustrator 22.1.0, SVG Export Plug-In . SVG Version: 6.00 Build 0)  -->
<svg version="1.1" id="Layer_1" xmlns="http://www.w3.org/2000/svg" xmlns:xlink="http://www.w3.org/1999/xlink" x="0px" y="0px"
	 viewBox="0 0 96 111" style="enable-background:new 0 0 96 111;" xml:space="preserve">
<style type="text/css">
	.st0{fill-rule:evenodd;clip-rule:evenodd;fill:#F48221;}
	.st1{fill-rule:evenodd;clip-rule:evenodd;fill:#FFFFFF;}
</style>
<g>
	<path class="st0" d="M91.7,24.7v60.9c0,4.5-2.3,8.5-5.8,10.7c-2,1.3-4.4,2.1-7,2.1H18c-7.1,0-12.8-5.7-12.8-12.8V24.7
		c0-7.1,5.7-12.8,12.8-12.8h60.9C85.9,11.9,91.7,17.6,91.7,24.7z"/>
	<path class="st1" d="M91.7,83.8v1.8c0,4.5-2.3,8.5-5.8,10.7c-13.3-2-24.6-10.4-30.6-21.9c-1.6-3-3.7-6.9-5.4-10
		c-4.4,5.8-8.2,10.8-9,11.9c-1.7,2.3-4.7,3.2-7.3,2.3c0,0,0,0,0,0c-0.1,0-0.3-0.1-0.4-0.1c-0.1,0-0.3-0.1-0.4-0.2c0,0,0,0,0,0
		c-2.3-1.1-3.9-3.4-3.9-6V37.8c0-3.7,3-6.6,6.6-6.6c3.7,0,6.6,3,6.6,6.6v14.8c6.3-8.3,12.8-17,14-18.6c2.2-2.9,6.4-3.5,9.3-1.3
		c2.9,2.2,3.5,6.4,1.3,9.3c-0.8,1.1-4.1,5.4-8.1,10.7c2.2,4.4,6.8,13.2,8.4,16.3C71.9,77.7,81.1,83.6,91.7,83.8z"/>
</g>
</svg>
