<svg xmlns="http://www.w3.org/2000/svg" xmlns:xlink="http://www.w3.org/1999/xlink" width="24" height="24" viewBox="0 0 24 24">
    <defs>
        <path id="prefix__a" d="M23.911 15.007c-.136-.497-.646-.792-1.145-.662-.466.115-.793.626-.672 1.1.142.55-.297 1.103-.89 1.1-1.39-.01-2.778-.003-4.167-.004-.038 0-.076-.006-.14-.01.045-.054.074-.084.1-.116.194-.238.404-.464.579-.715.798-1.146 1.186-2.442 1.36-3.812.088-.709.117-1.423.086-2.136-.02-.473-.064-.944-.1-1.432.023.023.043.048.061.074.126.215.258.428.375.649.425.808.846 1.617 1.263 2.427.162.31.417.495.763.52.744.056 1.237-.682.91-1.365-.67-1.397-1.41-2.757-2.222-4.077l-.539-.88h1.255c.556 0 .96-.394.961-.947.004-1.241.004-2.482 0-3.723 0-.551-.406-.95-.959-.952-.61 0-1.222-.006-1.833 0-.2 0-.4.02-.595.063-.965.229-1.649.802-2.03 1.72-.045.115-.102.143-.215.142-.816-.003-1.632-.003-2.448 0-.496.004-.908.425-.913.921-.004.25.093.49.267.669.175.178.413.28.663.282.683.004 1.366 0 2.05 0 .071 0 .124.005.156.09.372 1.015.692 2.046.895 3.108.125.658.239 1.32.307 1.987.11 1.09.094 2.181-.121 3.263-.134.673-.339 1.32-.673 1.92-.603 1.083-1.509 1.777-2.701 2.106-.431.12-.874.19-1.32.21-.266.015-.532-.001-.793-.049-.71-.136-1.314-.477-1.783-1.035-.782-.93-.984-1.988-.588-3.128.443-1.275 1.614-2.08 2.968-2.1.102-.004.204-.02.302-.046.48-.123.785-.695.624-1.162-.148-.43-.48-.668-.937-.668h-1.058V1.754c0-.248-.098-.485-.273-.66-.175-.176-.412-.274-.66-.274H5.062C2.792.822.952 2.662.95 4.933V9.29c0 .516.418.934.934.934h.884c-.091.08-.185.16-.273.244-.848.787-1.512 1.751-1.944 2.824-.229.57-.393 1.163-.49 1.77-.066.39-.092.782 0 1.173.184.792.614 1.408 1.326 1.815.08.036.128.118.12.205-.007.53.102 1.053.319 1.535.808 1.828 2.926 2.728 4.771 1.983 1.447-.585 2.236-1.694 2.4-3.245.008-.082.03-.111.114-.11.243.005.485 0 .729 0 1.7 0 3.4 0 5.1-.002.109 0 .152.022.156.142.012.38.097.754.25 1.102.572 1.325 1.568 2.116 3.002 2.33.741.117 1.5-.012 2.16-.368 1.337-.711 2.023-1.84 2.067-3.352-.007-.127.06-.247.173-.306.956-.609 1.471-1.83 1.164-2.957zm-5.24-13.039c.103-.026.208-.04.314-.043.262-.005.524 0 .786-.002.056 0 .105 0 .105.079-.003.584-.003 1.169-.005 1.753-.001.007-.004.014-.007.02l-.009.04c-.395-.02-.796-.01-1.184-.071-.388-.062-.666-.479-.666-.885 0-.407.287-.794.667-.89zM2.817 4.933c.001-1.24 1.006-2.245 2.246-2.246h4.085v5.655H7.893c-.157 0-.314.005-.47.014H2.817V4.933zm2.418 15.216c-1.074-.01-1.797-.887-1.84-1.72H7.11c-.052.885-.816 1.73-1.877 1.72zm2.788-3.606H2.798c-.627 0-1.001-.48-.898-1.1.097-.587.245-1.155.494-1.694.473-1.038 1.23-1.92 2.186-2.543.535-.353 1.124-.617 1.743-.782.42-.112.85-.179 1.282-.2h.507l.013.004c-1.448 2.11-1.446 4.203.004 6.308-.034.002-.068.007-.107.007zm12.654 2.007c-.113.656-.464 1.139-1.065 1.42-.445.212-.956.238-1.42.07-.464-.166-.842-.511-1.05-.958-.079-.166-.116-.351-.167-.529-.028-.098.007-.139.12-.136.575.005 1.152.002 1.73.002.576 0 1.152 0 1.73-.002.101-.002.14.021.122.133z"/>
    </defs>
    <g fill="none" fill-rule="evenodd" transform="translate(0 .98)">
        <mask id="prefix__b" fill="#fff">
            <use xlink:href="#prefix__a"/>
        </mask>
        <use fill="#131212" fill-rule="nonzero" xlink:href="#prefix__a"/>
        <path fill="#F09440" d="M0 -1H24V23H0z" mask="url(#prefix__b)"/>
    </g>
</svg>
