<svg xmlns="http://www.w3.org/2000/svg" width="24" height="24" viewBox="0 0 24 24">
    <g fill="none" fill-rule="evenodd">
        <path fill="#ffffff" fill-rule="nonzero" d="M23.95 19.324a3.543 3.543 0 0 0-1.086-2.435c-1.307-1.26-2.401-1.987-3.445-2.289-1.439-.415-2.771-.037-3.96 1.124l-.005.005-1.266 1.256c-.79-.446-2.327-1.424-3.988-3.085l-.123-.123c-1.662-1.662-2.64-3.2-3.085-3.989l1.255-1.265.006-.005c1.16-1.19 1.539-2.522 1.123-3.96-.302-1.044-1.029-2.139-2.289-3.446A3.543 3.543 0 0 0 4.652.026a3.542 3.542 0 0 0-2.506.908L2.119.96a.978.978 0 0 0-.037.034C.71 2.367-.01 4.29 0 6.553c.02 3.848 2.133 8.246 5.655 11.768A22.805 22.805 0 0 0 7.9 20.275a.936.936 0 1 0 1.138-1.485 20.951 20.951 0 0 1-2.058-1.792C3.797 13.817 1.889 9.91 1.87 6.545c-.008-1.744.516-3.2 1.518-4.212l.007-.006c.68-.61 1.71-.573 2.344.084C8.162 4.924 7.987 6.11 6.917 7.207L5.182 8.955a.936.936 0 0 0-.19 1.04c.044.098 1.109 2.452 3.762 5.105l.123.123c2.652 2.653 5.006 3.718 5.105 3.762a.936.936 0 0 0 1.04-.19l1.747-1.735c1.098-1.07 2.284-1.246 4.796 1.176.658.635.695 1.665.085 2.345l-.007.007c-1.003.993-2.443 1.517-4.168 1.517h-.043c-1.379-.007-2.975-.385-4.617-1.093a.936.936 0 1 0-.741 1.718c1.898.819 3.697 1.238 5.349 1.247h.052c2.242 0 4.146-.72 5.509-2.083a.941.941 0 0 0 .034-.036l.024-.027c.62-.69.942-1.58.909-2.507z"/>
        <!-- <path fill="#FFF" d="M0 0h24v24H0z"/> -->
    </g>
</svg>
