<svg xmlns="http://www.w3.org/2000/svg" width="32" height="32" viewBox="0 0 32 32">
    <g fill="none" fill-rule="evenodd">
        <path fill="#41126C" fill-rule="nonzero" d="M31.935 25.765a4.724 4.724 0 0 0-1.45-3.246c-1.742-1.68-3.202-2.65-4.593-3.052-1.918-.554-3.695-.05-5.28 1.498l-.007.007-1.687 1.674c-1.054-.594-3.104-1.899-5.318-4.113l-.165-.164c-2.215-2.215-3.52-4.265-4.113-5.318l1.674-1.687a.773.773 0 0 0 .008-.007c1.548-1.585 2.052-3.362 1.498-5.28-.403-1.392-1.372-2.851-3.053-4.594A4.724 4.724 0 0 0 6.203.034a4.723 4.723 0 0 0-3.342 1.212l-.036.032c-.016.015-.033.03-.048.046C.945 3.156-.015 5.72 0 8.738c.026 5.13 2.845 10.995 7.54 15.69a30.407 30.407 0 0 0 2.991 2.605 1.248 1.248 0 1 0 1.519-1.98 27.935 27.935 0 0 1-2.745-2.389c-4.242-4.241-6.787-9.452-6.81-13.938-.011-2.325.688-4.266 2.023-5.615l.01-.008a2.244 2.244 0 0 1 3.125.112c3.23 3.35 2.996 4.931 1.57 6.395L6.91 11.94a1.248 1.248 0 0 0-.255 1.386c.06.132 1.48 3.27 5.017 6.808l.164.164c3.536 3.536 6.675 4.957 6.807 5.015.47.21 1.02.109 1.386-.254l2.33-2.313c1.464-1.427 3.045-1.66 6.395 1.57.877.845.926 2.218.113 3.125l-.01.01c-1.337 1.324-3.257 2.023-5.557 2.023h-.057c-1.838-.01-3.967-.514-6.156-1.458a1.247 1.247 0 1 0-.988 2.291c2.53 1.092 4.93 1.65 7.131 1.662h.07c2.99 0 5.528-.96 7.345-2.777l.046-.048.032-.036a4.724 4.724 0 0 0 1.212-3.343z"/>
        <!-- <path fill="#41126C" d="M0 0h32v32H0z"/> -->
    </g>
</svg>
