<svg xmlns="http://www.w3.org/2000/svg" width="16" height="16" viewBox="0 0 16 16">
    <g fill="#41126C" fill-rule="evenodd">
        <path fill-rule="nonzero" d="M15.967 12.883a2.362 2.362 0 0 0-.724-1.623c-.871-.84-1.601-1.325-2.297-1.526-.96-.278-1.847-.026-2.64.749l-.004.003-.843.837c-.527-.297-1.552-.95-2.66-2.057l-.081-.082C5.61 8.077 4.958 7.052 4.66 6.525l.837-.843a.387.387 0 0 0 .004-.004c.774-.792 1.026-1.68.749-2.64-.201-.695-.686-1.425-1.526-2.296A2.362 2.362 0 0 0 3.102.017 2.362 2.362 0 0 0 1.43.623l-.017.016a.652.652 0 0 0-.025.023C.473 1.578-.007 2.86 0 4.37c.013 2.565 1.422 5.497 3.77 7.845.443.443.946.881 1.496 1.302a.624.624 0 1 0 .759-.99c-.507-.388-.968-.79-1.373-1.194-2.12-2.12-3.393-4.726-3.404-6.969-.006-1.163.344-2.133 1.011-2.807l.005-.005a1.122 1.122 0 0 1 1.563.057c1.615 1.674 1.498 2.465.784 3.197L3.455 5.97a.624.624 0 0 0-.127.693c.029.066.74 1.635 2.508 3.404l.082.082c1.768 1.768 3.337 2.478 3.403 2.508.236.104.51.054.694-.127l1.165-1.157c.731-.713 1.522-.83 3.197.785.438.423.463 1.109.056 1.562l-.004.005c-.67.662-1.63 1.012-2.78 1.012h-.028c-.919-.005-1.983-.257-3.078-.729a.624.624 0 1 0-.494 1.146c1.265.545 2.465.825 3.566.83h.035c1.495 0 2.764-.48 3.672-1.388a.628.628 0 0 0 .023-.024l.017-.018c.412-.46.628-1.054.605-1.671z"/>
    </g>
</svg>
