<svg xmlns="http://www.w3.org/2000/svg" width="24" height="24" viewBox="0 0 24 24">
    <g fill="none" fill-rule="evenodd">
        <g fill="#41126c" fill-rule="nonzero">
            <path d="M20.025 10.162l-1.144-.318-.487-1.2.581-1.031a1.19 1.19 0 0 0-.188-1.425l-.974-.975a1.193 1.193 0 0 0-1.425-.188l-1.032.581-1.2-.487-.319-1.144c-.15-.506-.618-.881-1.143-.881h-1.369c-.525 0-1.012.356-1.144.881l-.318 1.144-1.2.487-1.032-.581a1.19 1.19 0 0 0-1.425.188l-.993.975c-.375.375-.45.974-.188 1.425l.581 1.03-.487 1.2-1.144.32c-.506.15-.881.618-.881 1.143v1.369c0 .544.356 1.012.881 1.144l1.144.318.487 1.2-.581 1.032a1.19 1.19 0 0 0 .188 1.425l.975.975c.375.375.975.45 1.425.187l1.03-.581 1.2.487.32 1.144c.15.506.618.881 1.143.881h1.369c.525 0 1.012-.356 1.144-.88l.318-1.145 1.2-.487 1.032.581a1.19 1.19 0 0 0 1.425-.187l.975-.975a1.19 1.19 0 0 0 .187-1.425l-.581-1.032.487-1.2 1.144-.318c.506-.15.881-.619.881-1.144v-1.369c.02-.525-.337-.994-.862-1.144zm-.131 2.532c0 .075-.056.168-.131.187l-1.613.431-.863 2.1.825 1.463c.038.075.038.169-.037.225l-.975.975a.2.2 0 0 1-.225.038l-1.463-.825-2.1.862-.45 1.613c-.018.075-.093.13-.187.13h-1.369c-.075 0-.15-.055-.187-.13l-.432-1.613-2.1-.862-1.462.825c-.075.037-.169.037-.225-.038l-.975-.975a.2.2 0 0 1-.038-.225l.825-1.463-.862-2.1-1.613-.45c-.075-.018-.13-.093-.13-.187v-1.369c0-.093.055-.15.13-.187l1.613-.45.862-2.1-.825-1.444c-.037-.075-.037-.169.038-.225l.975-.975a.2.2 0 0 1 .225-.038l1.462.825 2.1-.862.45-1.613c.02-.075.094-.13.188-.13h1.369c.075 0 .15.055.187.13l.45 1.613 2.1.881 1.463-.825c.075-.037.168-.037.225.038l.975.975a.2.2 0 0 1 .037.225l-.825 1.462.844 2.081 1.612.45c.075.02.132.094.132.188v1.369z"/>
            <path d="M12 8.625A3.385 3.385 0 0 0 8.625 12 3.385 3.385 0 0 0 12 15.375 3.385 3.385 0 0 0 15.375 12 3.385 3.385 0 0 0 12 8.625zm0 5.738A2.365 2.365 0 0 1 9.638 12 2.365 2.365 0 0 1 12 9.638 2.365 2.365 0 0 1 14.363 12 2.353 2.353 0 0 1 12 14.363z"/>
        </g>
    </g>
</svg>
