<svg xmlns="http://www.w3.org/2000/svg" xmlns:xlink="http://www.w3.org/1999/xlink" width="16" height="16"
     viewBox="0 0 16 16">
    <defs>
        <filter id="prefix__a" width="625%" height="625%" x="-262.5%" y="-187.5%" filterUnits="objectBoundingBox">
            <feOffset dy="12" in="SourceAlpha" result="shadowOffsetOuter1"/>
            <feGaussianBlur in="shadowOffsetOuter1" result="shadowBlurOuter1" stdDeviation="12"/>
            <feColorMatrix in="shadowBlurOuter1"
                           values="0 0 0 0 0.249156297 0 0 0 0 0.0745098039 0 0 0 0 0.462745098 0 0 0 0.25 0"/>
        </filter>
        <path id="prefix__b" d="M0 0H16V16H0z"/>
    </defs>
    <g fill="none" fill-rule="evenodd">
        <path fill="#41126C"
              d="M15.983 8.125v5.365c0 1.375-1.12 2.494-2.495 2.494H2.51c-1.375 0-2.494-1.119-2.494-2.494V2.512C.016 1.136 1.135.017 2.51.017h7.142c.345 0 .624.28.624.624s-.28.623-.624.623H2.51c-.687 0-1.247.56-1.247 1.248V13.49c0 .687.56 1.247 1.247 1.247h10.978c.688 0 1.248-.56 1.248-1.247V8.125c0-.344.279-.623.623-.623.345 0 .624.279.624.623zm-1.431-4.558c.118.118.184.274.184.44 0 .166-.066.323-.184.44L12.05 6.933c-.244.243-.245.638-.002.882.122.123.282.184.442.184.16 0 .318-.06.44-.181l2.501-2.486c.356-.353.552-.824.552-1.325 0-.5-.196-.97-.552-1.324L12.93.197c-.244-.243-.64-.242-.882.003-.243.244-.242.639.002.882l2.502 2.485zm-1.345.41c0-.344-.279-.623-.623-.623-2.25 0-4.364.876-5.954 2.466-1.59 1.59-2.467 3.705-2.467 5.954v.468c0 .345.28.624.624.624.345 0 .624-.28.624-.624v-.468c0-3.955 3.218-7.173 7.173-7.173.344 0 .623-.279.623-.623z"/>
        <use fill="#41126C" filter="url(#prefix__a)" xlink:href="#prefix__b"/>
        <use xlink:href="#prefix__b"/>
    </g>
</svg>
