<svg xmlns="http://www.w3.org/2000/svg" width="24" height="24" viewBox="0 0 24 24">
    <g fill="none" fill-rule="evenodd">
        <path fill="#FFF" fill-rule="nonzero" d="M23.925 7.16L21.84 2.278C21.251.894 19.897 0 18.392 0H5.608c-1.505 0-2.859.894-3.45 2.278L.076 7.16C.025 7.276 0 7.4 0 7.528v1.219c0 1.281.772 2.385 1.875 2.873v8.63c0 2.068 1.682 3.75 3.75 3.75h12.75c2.068 0 3.75-1.682 3.75-3.75 0-.518-.42-.937-.937-.937-.518 0-.938.42-.938.937 0 1.034-.841 1.875-1.875 1.875H5.625c-1.034 0-1.875-.841-1.875-1.875v-8.423c.614-.12 1.164-.422 1.594-.845.088.088.183.17.281.246v6.069c0 .518.42.937.938.937h10.875c.517 0 .937-.42.937-.937v-6.07c.098-.076.193-.157.281-.245.43.423.98.724 1.594.845v3.736c0 .517.42.937.938.937.517 0 .937-.42.937-.937V11.62C23.228 11.132 24 10.028 24 8.747v-1.22c0-.126-.026-.25-.075-.367zM4.406 8.747c0 .697-.567 1.265-1.265 1.265s-1.266-.568-1.266-1.265v-.31h2.531v.31zm1.875 0v-.31h2.532v.31c0 .697-.568 1.265-1.266 1.265-.698 0-1.266-.568-1.266-1.265zM16.5 16.359h-9v-4.473l.047.001c.864 0 1.649-.351 2.217-.918.576.567 1.366.918 2.236.918.87 0 1.66-.35 2.236-.918.568.567 1.353.918 2.217.918l.047-.001v4.473zM10.687 8.7v-.261h2.626V8.7c0 .723-.59 1.312-1.313 1.312-.724 0-1.313-.589-1.313-1.312zm7.032.048c0 .697-.568 1.265-1.266 1.265-.698 0-1.265-.568-1.265-1.265v-.31h2.53v.31zM2.369 6.563l1.514-3.549c.295-.692.972-1.139 1.725-1.139h12.784c.753 0 1.43.447 1.725 1.139l1.514 3.549H2.37zm19.756 2.184c0 .697-.568 1.265-1.266 1.265-.697 0-1.265-.568-1.265-1.265v-.31h2.531v.31z"/>
        <!-- <path fill="#FFF" d="M0 0H24V24H0z"/> -->
    </g>
</svg>
