<svg xmlns="http://www.w3.org/2000/svg" width="24" height="24" viewBox="0 0 24 24">
    <g fill="none" fill-rule="evenodd">
        <path fill="#FFF" fill-rule="nonzero" d="M21.017 22.082h-.675a2.81 2.81 0 0 0-2.646-3.743h-.19a28.975 28.975 0 0 1-.897-3.155.936.936 0 1 0-1.824.416c.22.965.47 1.881.748 2.74H8.445c.928-2.862 1.535-6.353 1.886-10.808h3.314c.098 1.248.214 2.395.351 3.486a.936.936 0 0 0 1.857-.234 71.413 71.413 0 0 1-.33-3.252h1.237a.936.936 0 0 0 .936-.935c0-1.59.277-3.255.898-5.4a.936.936 0 1 0-1.797-.521c-.12.413-.227.81-.324 1.196h-1.678V.936a.936.936 0 1 0-1.871 0v.936h-1.825V.936a.936.936 0 0 0-1.87 0v.936H7.565A23.044 23.044 0 0 0 7.22.656a.936.936 0 0 0-1.785.56c.566 1.806.842 3.473.893 5.405a.936.936 0 0 0 .935.911h1.19c-.364 4.546-1.002 8.02-1.983 10.807h-.19a2.81 2.81 0 0 0-2.645 3.743h-.676a.936.936 0 1 0 0 1.871h18.058a.936.936 0 1 0 0-1.871zM7.95 3.742h8.126c-.113.667-.187 1.301-.224 1.919H8.158a21.104 21.104 0 0 0-.208-1.918zM5.345 21.147c0-.516.42-.935.936-.935h11.415a.937.937 0 0 1 0 1.87H6.28a.937.937 0 0 1-.936-.935z"/>
        <!-- <path fill="#FFF" d="M0 0h24v24H0z"/> -->
    </g>
</svg>
