<svg xmlns="http://www.w3.org/2000/svg" width="24" height="24" viewBox="0 0 24 24">
    <g fill="none" fill-rule="evenodd">
        <path fill="#FFF" fill-rule="nonzero" d="M23.063 16.031c.517 0 .937-.42.937-.937V3.75A3.754 3.754 0 0 0 20.25 0H3.75A3.754 3.754 0 0 0 0 3.75v16.5A3.754 3.754 0 0 0 3.75 24h16.5A3.754 3.754 0 0 0 24 20.25a.937.937 0 1 0-1.875 0 1.877 1.877 0 0 1-1.875 1.875h-7.125v-3.75h6.563a.937.937 0 1 0 0-1.875h-.938v-3.656h3.375v2.25c0 .518.42.937.938.937zM22.125 3.75v1.734H18.75V1.875h1.5c1.034 0 1.875.841 1.875 1.875zM7.875 5.484V1.875h9v3.61h-9zM3.75 1.875H6v3.61H4.688a.937.937 0 1 0 0 1.874h6.515v3.61H1.875V3.75c0-1.034.841-1.875 1.875-1.875zM1.875 16.5v-3.656H6V16.5H1.875zm9.375 5.625h-7.5a1.877 1.877 0 0 1-1.875-1.875v-1.875h9.375v3.75zm6.563-11.156a.937.937 0 0 0-.938.937V16.5h-9v-3.656h6.14a.937.937 0 1 0 0-1.875h-.937v-3.61h9.047v3.61h-4.312z"/>
    </g>
</svg>
